<svg xmlns="http://www.w3.org/2000/svg" viewBox="0 0 128 128">
  <rect width="128" height="128" rx="28" fill="#14141e"/>
  <!-- hair back (pink twin-tails) -->
  <ellipse cx="26" cy="78" rx="14" ry="22" fill="#ff9ecb"/>
  <ellipse cx="102" cy="78" rx="14" ry="22" fill="#ff9ecb"/>
  <!-- face (pale green zombie skin) -->
  <circle cx="64" cy="66" r="38" fill="#a8d8a0"/>
  <!-- bangs -->
  <path d="M26 62 q4 -36 38 -36 q34 0 38 36 q-10 -14 -22 -12 q4 6 0 10 q-6 -10 -16 -8 q-10 -2 -16 8 q-4 -4 0 -10 q-12 -2 -22 12 z" fill="#ff9ecb"/>
  <!-- eyes (red, sparkly) -->
  <ellipse cx="48" cy="72" rx="7" ry="9" fill="#e03030"/>
  <ellipse cx="80" cy="72" rx="7" ry="9" fill="#e03030"/>
  <circle cx="46" cy="69" r="2.4" fill="#fff"/>
  <circle cx="78" cy="69" r="2.4" fill="#fff"/>
  <!-- blush -->
  <ellipse cx="40" cy="84" rx="5" ry="3" fill="#ff9eae" opacity="0.7"/>
  <ellipse cx="88" cy="84" rx="5" ry="3" fill="#ff9eae" opacity="0.7"/>
  <!-- smile -->
  <path d="M58 88 q6 5 12 0" stroke="#7a4040" stroke-width="2.5" fill="none" stroke-linecap="round"/>
  <!-- stitch -->
  <path d="M86 56 l8 -3 m-7 -2 l2 4 m2 -5 l2 4" stroke="#5a7a5a" stroke-width="1.8" stroke-linecap="round"/>
</svg>
